<mxfile host="Electron" agent="Mozilla/5.0 (Windows NT 10.0; Win64; x64) AppleWebKit/537.36 (KHTML, like Gecko) draw.io/24.7.8 Chrome/128.0.6613.36 Electron/32.0.1 Safari/537.36" version="24.7.8">
  <diagram name="Page-1" id="65RCNnNQtsIsU65YwfiV">
    <mxGraphModel dx="1059" dy="681" grid="0" gridSize="10" guides="1" tooltips="1" connect="1" arrows="1" fold="1" page="0" pageScale="1" pageWidth="850" pageHeight="1100" math="0" shadow="0">
      <root>
        <mxCell id="0" />
        <mxCell id="1" parent="0" />
        <mxCell id="2B1vHlC7C50aqagilHTy-83" value="User" style="shape=umlLifeline;perimeter=lifelinePerimeter;whiteSpace=wrap;container=1;dropTarget=0;collapsible=0;recursiveResize=0;outlineConnect=0;portConstraint=eastwest;newEdgeStyle={&quot;edgeStyle&quot;:&quot;elbowEdgeStyle&quot;,&quot;elbow&quot;:&quot;vertical&quot;,&quot;curved&quot;:0,&quot;rounded&quot;:0};participant=umlActor;verticalAlign=bottom;labelPosition=center;verticalLabelPosition=top;align=center;size=65;" vertex="1" parent="1">
          <mxGeometry x="20" y="20" width="35" height="630" as="geometry" />
        </mxCell>
        <mxCell id="2B1vHlC7C50aqagilHTy-84" value="Main" style="shape=umlLifeline;perimeter=lifelinePerimeter;whiteSpace=wrap;container=1;dropTarget=0;collapsible=0;recursiveResize=0;outlineConnect=0;portConstraint=eastwest;newEdgeStyle={&quot;edgeStyle&quot;:&quot;elbowEdgeStyle&quot;,&quot;elbow&quot;:&quot;vertical&quot;,&quot;curved&quot;:0,&quot;rounded&quot;:0};size=65;" vertex="1" parent="1">
          <mxGeometry x="280" y="20" width="150" height="630" as="geometry" />
        </mxCell>
        <mxCell id="2B1vHlC7C50aqagilHTy-85" value="Admin" style="shape=umlLifeline;perimeter=lifelinePerimeter;whiteSpace=wrap;container=1;dropTarget=0;collapsible=0;recursiveResize=0;outlineConnect=0;portConstraint=eastwest;newEdgeStyle={&quot;edgeStyle&quot;:&quot;elbowEdgeStyle&quot;,&quot;elbow&quot;:&quot;vertical&quot;,&quot;curved&quot;:0,&quot;rounded&quot;:0};size=65;" vertex="1" parent="1">
          <mxGeometry x="480" y="20" width="150" height="630" as="geometry" />
        </mxCell>
        <mxCell id="2B1vHlC7C50aqagilHTy-86" value="Siswa" style="shape=umlLifeline;perimeter=lifelinePerimeter;whiteSpace=wrap;container=1;dropTarget=0;collapsible=0;recursiveResize=0;outlineConnect=0;portConstraint=eastwest;newEdgeStyle={&quot;edgeStyle&quot;:&quot;elbowEdgeStyle&quot;,&quot;elbow&quot;:&quot;vertical&quot;,&quot;curved&quot;:0,&quot;rounded&quot;:0};size=65;" vertex="1" parent="1">
          <mxGeometry x="680" y="20" width="150" height="630" as="geometry" />
        </mxCell>
        <mxCell id="2B1vHlC7C50aqagilHTy-87" value="loop" style="shape=umlFrame;dashed=1;pointerEvents=0;dropTarget=0;strokeColor=#B3B3B3;height=20;width=40" vertex="1" parent="1">
          <mxGeometry x="84" y="147" width="282" height="98" as="geometry" />
        </mxCell>
        <mxCell id="2B1vHlC7C50aqagilHTy-88" value="[selama login gagal]" style="text;strokeColor=none;fillColor=none;align=center;verticalAlign=middle;whiteSpace=wrap;" vertex="1" parent="2B1vHlC7C50aqagilHTy-87">
          <mxGeometry x="40" width="242" height="20" as="geometry" />
        </mxCell>
        <mxCell id="2B1vHlC7C50aqagilHTy-89" value="alt" style="shape=umlFrame;dashed=1;pointerEvents=0;dropTarget=0;strokeColor=#B3B3B3;height=20;width=30" vertex="1" parent="1">
          <mxGeometry x="84" y="255" width="682" height="300" as="geometry" />
        </mxCell>
        <mxCell id="2B1vHlC7C50aqagilHTy-90" value="[jika role == Admin]" style="text;strokeColor=none;fillColor=none;align=center;verticalAlign=middle;whiteSpace=wrap;" vertex="1" parent="2B1vHlC7C50aqagilHTy-89">
          <mxGeometry x="30" width="652" height="20" as="geometry" />
        </mxCell>
        <mxCell id="2B1vHlC7C50aqagilHTy-91" value="[jika role == Siswa]" style="shape=line;dashed=1;whiteSpace=wrap;verticalAlign=top;labelPosition=center;verticalLabelPosition=middle;align=center;strokeColor=#B3B3B3;" vertex="1" parent="2B1vHlC7C50aqagilHTy-89">
          <mxGeometry y="155" width="682" height="4" as="geometry" />
        </mxCell>
        <mxCell id="2B1vHlC7C50aqagilHTy-92" value="input(username, password)" style="verticalAlign=bottom;edgeStyle=elbowEdgeStyle;elbow=vertical;curved=0;rounded=0;endArrow=block;" edge="1" parent="1" source="2B1vHlC7C50aqagilHTy-83" target="2B1vHlC7C50aqagilHTy-84">
          <mxGeometry relative="1" as="geometry">
            <Array as="points">
              <mxPoint x="234" y="127" />
            </Array>
          </mxGeometry>
        </mxCell>
        <mxCell id="2B1vHlC7C50aqagilHTy-93" value="input(username, password)" style="verticalAlign=bottom;edgeStyle=elbowEdgeStyle;elbow=vertical;curved=0;rounded=0;endArrow=block;" edge="1" parent="1" source="2B1vHlC7C50aqagilHTy-83" target="2B1vHlC7C50aqagilHTy-84">
          <mxGeometry relative="1" as="geometry">
            <Array as="points">
              <mxPoint x="234" y="225" />
            </Array>
          </mxGeometry>
        </mxCell>
        <mxCell id="2B1vHlC7C50aqagilHTy-94" value="showMenu()" style="verticalAlign=bottom;edgeStyle=elbowEdgeStyle;elbow=vertical;curved=0;rounded=0;endArrow=block;" edge="1" parent="1" source="2B1vHlC7C50aqagilHTy-84" target="2B1vHlC7C50aqagilHTy-85">
          <mxGeometry relative="1" as="geometry">
            <Array as="points">
              <mxPoint x="464" y="333" />
            </Array>
          </mxGeometry>
        </mxCell>
        <mxCell id="2B1vHlC7C50aqagilHTy-95" value="tampilkan()" style="verticalAlign=bottom;edgeStyle=elbowEdgeStyle;elbow=vertical;curved=0;rounded=0;endArrow=block;" edge="1" parent="1" source="2B1vHlC7C50aqagilHTy-85" target="2B1vHlC7C50aqagilHTy-83">
          <mxGeometry relative="1" as="geometry">
            <Array as="points">
              <mxPoint x="337" y="385" />
            </Array>
          </mxGeometry>
        </mxCell>
        <mxCell id="2B1vHlC7C50aqagilHTy-96" value="showMenu()" style="verticalAlign=bottom;edgeStyle=elbowEdgeStyle;elbow=vertical;curved=0;rounded=0;endArrow=block;" edge="1" parent="1" source="2B1vHlC7C50aqagilHTy-84" target="2B1vHlC7C50aqagilHTy-86">
          <mxGeometry relative="1" as="geometry">
            <Array as="points">
              <mxPoint x="564" y="483" />
            </Array>
          </mxGeometry>
        </mxCell>
        <mxCell id="2B1vHlC7C50aqagilHTy-97" value="tampilkan()" style="verticalAlign=bottom;edgeStyle=elbowEdgeStyle;elbow=vertical;curved=0;rounded=0;endArrow=block;" edge="1" parent="1" source="2B1vHlC7C50aqagilHTy-86" target="2B1vHlC7C50aqagilHTy-83">
          <mxGeometry relative="1" as="geometry">
            <Array as="points">
              <mxPoint x="437" y="535" />
            </Array>
          </mxGeometry>
        </mxCell>
        <mxCell id="2B1vHlC7C50aqagilHTy-98" value="" style="rounded=0;whiteSpace=wrap;html=1;" vertex="1" parent="1">
          <mxGeometry x="355" y="126" width="8" height="101" as="geometry" />
        </mxCell>
        <mxCell id="2B1vHlC7C50aqagilHTy-99" value="" style="rounded=0;whiteSpace=wrap;html=1;" vertex="1" parent="1">
          <mxGeometry x="554" y="331" width="8" height="59" as="geometry" />
        </mxCell>
        <mxCell id="2B1vHlC7C50aqagilHTy-101" value="" style="rounded=0;whiteSpace=wrap;html=1;" vertex="1" parent="1">
          <mxGeometry x="758" y="479" width="8" height="59" as="geometry" />
        </mxCell>
      </root>
    </mxGraphModel>
  </diagram>
</mxfile>
